<svg width="24" height="25" viewBox="0 0 24 25" fill="none" xmlns="http://www.w3.org/2000/svg">
<path d="M13.3 6.50001C13.3 7.21798 12.718 7.80001 12 7.80001C11.282 7.80001 10.7 7.21798 10.7 6.50001C10.7 5.78204 11.282 5.20001 12 5.20001C12.718 5.20001 13.3 5.78204 13.3 6.50001Z" fill="#343433"/>
<path d="M13.3 12.5C13.3 13.218 12.718 13.8 12 13.8C11.282 13.8 10.7 13.218 10.7 12.5C10.7 11.782 11.282 11.2 12 11.2C12.718 11.2 13.3 11.782 13.3 12.5Z" fill="#343433"/>
<path d="M13.3 18.5C13.3 19.218 12.718 19.8 12 19.8C11.282 19.8 10.7 19.218 10.7 18.5C10.7 17.782 11.282 17.2 12 17.2C12.718 17.2 13.3 17.782 13.3 18.5Z" fill="#343433"/>
</svg>
