<svg width="49" height="48" viewBox="0 0 49 48" fill="none" xmlns="http://www.w3.org/2000/svg">
<g clip-path="url(#clip0_1_1695)">
<rect x="0.5" width="48" height="48" rx="24" fill="#FFBD1B"/>
<path d="M14.2261 24.8816V34.4906C14.2261 34.6735 14.328 34.8412 14.4904 34.9254L20.1222 37.8456C20.4482 38.0146 20.8373 37.778 20.8373 37.4108V27.9322L34.299 20.8309L27.6935 17.4031L14.2261 24.8816Z" fill="white"/>
<path fill-rule="evenodd" clip-rule="evenodd" d="M6.125 23.0918V40.7877C6.125 41.1438 6.31828 41.4719 6.62977 41.6445L23.3286 50.9199C23.9124 51.2434 24.6207 51.2473 25.208 50.9305L42.3606 41.6771C42.6775 41.5062 42.875 41.1752 42.875 40.8151V22.8736C42.875 22.5195 42.6839 22.193 42.3752 22.0196L25.484 12.7504C25.1899 12.5852 24.8315 12.583 24.5353 12.7445L6.63544 22.232C6.32078 22.4036 6.125 22.7334 6.125 23.0918ZM14.2261 34.4906V24.8816L27.6935 17.4031L34.299 20.8309L20.8373 27.9322V37.4108C20.8373 37.778 20.4482 38.0146 20.1222 37.8456L14.4904 34.9254C14.328 34.8412 14.2261 34.6735 14.2261 34.4906Z" fill="#FFEEC6"/>
</g>
<defs>
<clipPath id="clip0_1_1695">
<rect x="0.5" width="48" height="48" rx="24" fill="white"/>
</clipPath>
</defs>
</svg>
