<svg width="18" height="18" viewBox="0 0 18 18" fill="none" xmlns="http://www.w3.org/2000/svg">
<path d="M17.0999 9.00002C17.0999 13.4735 13.4734 17.1 8.9999 17.1M17.0999 9.00002C17.0999 4.52652 13.4734 0.900024 8.9999 0.900024M17.0999 9.00002H0.899902M8.9999 17.1C4.5264 17.1 0.899902 13.4735 0.899902 9.00002M8.9999 17.1C10.8461 17.1 12.3428 13.4735 12.3428 9.00002C12.3428 4.52652 10.8461 0.900024 8.9999 0.900024M8.9999 17.1C7.15369 17.1 5.65704 13.4735 5.65704 9.00002C5.65704 4.52652 7.15369 0.900024 8.9999 0.900024M0.899902 9.00002C0.899902 4.52652 4.5264 0.900024 8.9999 0.900024" stroke="#B4B4B4" stroke-width="1.6"/>
</svg>
