<svg width="32" height="32" viewBox="0 0 32 32" fill="none" xmlns="http://www.w3.org/2000/svg">
<g clip-path="url(#clip0_155_749)">
<path fill-rule="evenodd" clip-rule="evenodd" d="M0 0.00109863H32V32.0011H0V0.00109863Z" fill="#D94F00"/>
<path fill-rule="evenodd" clip-rule="evenodd" d="M17.9108 7.68115H24.7141V14.4169H17.9108V7.68115ZM9.68615 17.8241V18.483H10.8587V21.9691H11.6672V18.4564H12.7589V17.7974L9.68615 17.8241ZM9.08229 18.641V17.982C8.43367 17.6923 7.68776 17.6047 6.92403 17.982C5.67155 18.5354 5.62679 21.2754 6.87972 21.8112C7.59915 22.1713 9.09965 22.0043 9.25084 21.688V19.5188H7.75902V20.0898H8.41586V21.2317C6.2576 22.2679 5.85792 17.2883 9.08229 18.641ZM14.0739 20.0546H14.8463C15.4858 20.0812 15.6548 21.2754 14.8198 21.2664H14.0739V20.0546ZM14.0739 18.3774H14.8463C15.4858 18.4916 15.2552 19.4313 14.8198 19.4574H14.0739V18.3774ZM13.2746 17.7365V21.9339H15.3972C16.4807 21.5476 16.5254 19.888 15.3972 19.712C16.4364 19.5983 16.4898 17.7099 14.6956 17.7099L13.2746 17.7365ZM17.0224 18.9131V19.5364C17.5906 19.3785 18.8253 18.9393 18.7097 19.8704C17.6263 19.8 16.889 19.9932 16.7648 20.6603C16.5606 22.1009 18.1237 22.2413 18.781 21.53V21.8726H19.5269V19.3433C19.3406 18.5263 18.1063 18.4212 17.0224 18.9131ZM17.6528 20.5379C17.8218 20.3181 18.3635 20.3267 18.7276 20.4323V20.9857C18.1328 21.6175 17.1732 21.3287 17.6528 20.5379ZM21.0726 19.6596C21.2681 19.4489 22.3073 19.0535 22.4672 19.6596V21.8902H23.3017V19.5279C23.124 18.5439 22.1735 18.3684 21.0192 19.0359V18.6672H20.229V21.9078H21.0635L21.0726 19.6596ZM25.9218 18.6319L24.8296 20.0807L25.9843 21.8635L26.9879 21.8373L25.718 20.125L26.8636 18.6581L25.9218 18.6319ZM23.9238 17.5691H24.7497V21.8635H23.9234L23.9238 17.5691Z" fill="white"/>
</g>
<defs>
<clipPath id="clip0_155_749">
<rect y="0.00109863" width="32" height="32" rx="16" fill="white"/>
</clipPath>
</defs>
</svg>
