<svg width="49" height="48" viewBox="0 0 49 48" fill="none" xmlns="http://www.w3.org/2000/svg">
<g clip-path="url(#clip0_1_1693)">
<rect x="0.5" width="48" height="48" rx="24" fill="#018DFF"/>
<path fill-rule="evenodd" clip-rule="evenodd" d="M21.1476 14.7063C20.7531 14.7063 20.4333 15.0261 20.4333 15.4206V18.8494C20.4333 20.0329 19.4739 20.9922 18.2904 20.9922C17.107 20.9922 16.1476 20.0329 16.1476 18.8494V15.4206C16.1476 12.6592 18.3862 10.4206 21.1476 10.4206H27.8412C30.6026 10.4206 32.8412 12.6592 32.8412 15.4206V18.8494C32.8412 20.0329 31.8818 20.9922 30.6983 20.9922C29.5148 20.9922 28.5554 20.0329 28.5554 18.8494V15.4206C28.5554 15.0261 28.2356 14.7063 27.8412 14.7063H21.1476Z" fill="#CCE8FF"/>
<path d="M5.8302 21.7065C5.8302 20.1286 7.10939 18.8494 8.68735 18.8494H40.3011C41.8788 18.8494 43.1583 20.1286 43.1583 21.7065V46.4814C43.1583 48.0594 41.8788 49.3386 40.3011 49.3386H8.68735C7.10939 49.3386 5.8302 48.0594 5.8302 46.4814V21.7065Z" fill="#AEDAFF"/>
<path fill-rule="evenodd" clip-rule="evenodd" d="M5.8302 30.9344L22.896 35.9591C23.9496 36.2693 25.0702 36.2693 26.1239 35.9591L43.1583 30.9437V21.7065C43.1583 20.1286 41.8788 18.8494 40.3011 18.8494H8.68735C7.10939 18.8494 5.8302 20.1286 5.8302 21.7065V30.9344Z" fill="white"/>
</g>
<defs>
<clipPath id="clip0_1_1693">
<rect x="0.5" width="48" height="48" rx="24" fill="white"/>
</clipPath>
</defs>
</svg>
