<svg width="32" height="32" viewBox="0 0 32 32" fill="none" xmlns="http://www.w3.org/2000/svg">
<g clip-path="url(#clip0_155_734)">
<rect y="0.00109863" width="32" height="32" rx="16" fill="#FFCC01"/>
<path d="M16 10.0963C9.47783 10.0963 4.19048 12.74 4.19048 16.0011C4.19048 19.2622 9.47783 21.9058 16 21.9058C22.5222 21.9058 27.8095 19.2621 27.8095 16.0011C27.8095 12.74 22.5222 10.0963 16 10.0963ZM16 20.9736C9.99263 20.9736 5.12271 18.7474 5.12271 16.0011C5.12271 13.2548 9.99268 11.0285 16 11.0285C22.0074 11.0285 26.8773 13.2548 26.8773 16.0011C26.8773 18.7474 22.0073 20.9736 16 20.9736ZM14.5107 14.9652V14.0328H17.8423V14.9652H16.6429V17.9694H15.7103V14.9652H14.5107ZM21.8638 14.0328V17.9694H20.9316L19.2408 15.626V17.9694H18.3085V14.0328H19.2407L20.9315 16.3762V14.0328H21.8638ZM10.1085 17.9694V14.0328H11.0407L12.0764 15.626L13.1122 14.0328H14.044V17.9694H13.1122V15.7428L12.4051 16.8296H11.7478L11.0407 15.7428V17.9694H10.1085Z" fill="black"/>
</g>
<defs>
<clipPath id="clip0_155_734">
<rect width="32" height="32" fill="white" transform="translate(0 0.00109863)"/>
</clipPath>
</defs>
</svg>
