<svg width="30" height="33" viewBox="0 0 30 33" fill="none" xmlns="http://www.w3.org/2000/svg">
<path d="M10.9333 23.3226C10.872 23.3986 10.7746 23.54 10.8173 23.6426C10.8468 23.6959 10.889 23.7411 10.9402 23.7741C10.9914 23.8072 11.0499 23.827 11.1106 23.8319C11.1918 23.8408 11.2738 23.8263 11.347 23.7901C11.4202 23.754 11.4816 23.6977 11.524 23.6279C11.9491 23.0403 12.2923 22.3975 12.544 21.7173C11.9581 22.2009 11.4189 22.7384 10.9333 23.3226ZM14.5253 18.8039C14.868 18.6226 15.224 18.4506 15.592 18.2919C15.2515 18.0706 14.9115 17.8284 14.572 17.5653C14.5729 17.9751 14.5573 18.3879 14.5253 18.8039ZM12.1946 11.8893H12.1826C12.0857 11.9037 11.9985 11.956 11.94 12.0346C11.8769 12.1086 11.8414 12.2022 11.8395 12.2994C11.8375 12.3966 11.8693 12.4915 11.9293 12.5679C12.2111 13.0293 12.5018 13.4595 12.8013 13.8586C12.6627 13.2368 12.4845 12.6244 12.268 12.0253C12.2571 11.9739 12.2316 11.9267 12.1946 11.8893Z" fill="#ED2224"/>
<path d="M21.5413 18.4574C20.7832 18.4285 20.0241 18.4731 19.2747 18.5907C20.0727 18.8557 20.8949 19.0415 21.7293 19.1454C21.8853 19.1654 21.928 19.1107 21.9467 19.0854C21.9809 19.0246 21.9997 18.9563 22.0013 18.8866C22.0029 18.8168 21.9874 18.7477 21.956 18.6854C21.9167 18.6111 21.8565 18.5499 21.7828 18.5093C21.7091 18.4688 21.6252 18.4508 21.5413 18.4574Z" fill="#ED2224"/>
<rect x="5" y="2.5011" width="20" height="28" rx="2" fill="#6872FF"/>
<g clip-path="url(#clip0_155_858)">
<rect x="13" y="6.5011" width="4" height="5" rx="0.5" fill="#F3F4F5"/>
<path d="M14.05 8.0011L13.1 8.9511L14.05 9.9011M14.05 8.0011H15.95M14.05 8.0011V6.5011M15.95 8.0011L16.9 8.9511L15.95 9.9011M15.95 8.0011V6.5011M15.95 9.9011H14.05M15.95 9.9011V11.5011M14.05 9.9011V11.5011" stroke="#B4B4B4" stroke-width="0.2" stroke-linejoin="round"/>
</g>
<defs>
<clipPath id="clip0_155_858">
<rect x="13" y="6.5011" width="4" height="5" rx="0.5" fill="white"/>
</clipPath>
</defs>
</svg>
