<svg width="32" height="32" viewBox="0 0 32 32" fill="none" xmlns="http://www.w3.org/2000/svg">
<rect y="-0.00109863" width="32" height="32.0044" rx="16" fill="#343433"/>
<rect y="-0.00109863" width="32" height="32.0044" rx="16" fill="white" fill-opacity="0.95"/>
<path d="M21.8124 15.8369L21.5852 16.8107C22.1202 16.9355 22.6556 16.6055 22.7845 16.0715L21.8124 15.8369ZM18.7515 14.0958C18.2136 13.9703 17.6759 14.3045 17.5504 14.8424C17.4249 15.3802 17.7592 15.918 18.297 16.0435L18.7515 14.0958ZM23.5518 12.8929C23.6814 12.356 23.3512 11.8158 22.8143 11.6862C22.2775 11.5566 21.7372 11.8868 21.6076 12.4236L23.5518 12.8929ZM10.8098 12.0965C10.4803 12.5397 10.5725 13.1661 11.0157 13.4956C11.4589 13.8252 12.0853 13.733 12.4148 13.2898L10.8098 12.0965ZM10.1874 16.1657L10.4146 15.1918C9.87968 15.067 9.34421 15.3971 9.21532 15.931L10.1874 16.1657ZM13.2484 17.9068C13.7862 18.0323 14.3239 17.698 14.4494 17.1602C14.5749 16.6223 14.2407 16.0846 13.7028 15.9591L13.2484 17.9068ZM8.44807 19.1096C8.31848 19.6465 8.64864 20.1868 9.18551 20.3164C9.72238 20.4459 10.2626 20.1158 10.3922 19.5789L8.44807 19.1096ZM21.19 19.906C21.5195 19.4628 21.4274 18.8364 20.9842 18.5069C20.541 18.1774 19.9146 18.2695 19.585 18.7127L21.19 19.906ZM15.9721 11.4661C17.0608 11.4661 17.8668 11.9194 18.629 12.7562C19.4342 13.6402 20.1142 14.8653 20.942 16.3291L22.6829 15.3446C21.8991 13.9586 21.0994 12.4983 20.1076 11.4094C19.0728 10.2734 17.7644 9.46613 15.9721 9.46613V11.4661ZM22.0397 14.863L18.7515 14.0958L18.297 16.0435L21.5852 16.8107L22.0397 14.863ZM21.6076 12.4236L20.8404 15.6022L22.7845 16.0715L23.5518 12.8929L21.6076 12.4236ZM12.4148 13.2898C13.2473 12.1703 14.5366 11.4661 15.9721 11.4661V9.46613C13.8591 9.46613 11.9919 10.5067 10.8098 12.0965L12.4148 13.2898ZM16.0277 20.5364C14.939 20.5364 14.1331 20.0832 13.3708 19.2463C12.5656 18.3623 11.8856 17.1372 11.0579 15.6734L9.31694 16.6579C10.1007 18.0439 10.9004 19.5042 11.8922 20.5931C12.927 21.7292 14.2355 22.5364 16.0277 22.5364V20.5364ZM9.96017 17.1395L13.2484 17.9068L13.7028 15.9591L10.4146 15.1918L9.96017 17.1395ZM10.3922 19.5789L11.1595 16.4003L9.21532 15.931L8.44807 19.1096L10.3922 19.5789ZM19.585 18.7127C18.7526 19.8323 17.4632 20.5364 16.0277 20.5364V22.5364C18.1407 22.5364 20.0079 21.4959 21.19 19.906L19.585 18.7127Z" fill="#343433"/>
</svg>
